<svg xmlns="http://www.w3.org/2000/svg" xmlns:xlink="http://www.w3.org/1999/xlink" viewBox="0 0 398.62 158.53"><defs><style>.cls-1{fill:url(#Xanh_nuoc_bien);}.cls-2{fill:#fff;}.cls-3{fill:#27aae1;}.cls-4{fill:none;stroke:#f9f7f9;stroke-miterlimit:10;stroke-width:1.33px;}.cls-5{fill:url(#Xanh_nuoc_bien-2);}.cls-6{fill:url(#Xanh_nuoc_bien-3);}.cls-7{fill:url(#Xanh_nuoc_bien-4);}</style><linearGradient id="Xanh_nuoc_bien" x1="79.26" y1="158.53" x2="79.26" gradientUnits="userSpaceOnUse"><stop offset="0" stop-color="#001e6a"/><stop offset="1" stop-color="#55d6ff"/></linearGradient><linearGradient id="Xanh_nuoc_bien-2" x1="225.36" y1="106.66" x2="187.95" y2="41.88" xlink:href="#Xanh_nuoc_bien"/><linearGradient id="Xanh_nuoc_bien-3" x1="302.54" y1="104.88" x2="265.17" y2="40.17" xlink:href="#Xanh_nuoc_bien"/><linearGradient id="Xanh_nuoc_bien-4" x1="380.9" y1="104.36" x2="341.98" y2="36.93" xlink:href="#Xanh_nuoc_bien"/></defs><g id="Layer_2" data-name="Layer 2"><g id="Layer_1-2" data-name="Layer 1"><circle class="cls-1" cx="79.26" cy="79.26" r="79.26"/><path class="cls-2" d="M97.59,72.42H62.83c-8.93,0-14.93-3.69-14.93-9.17,0-5.28,5.55-8.89,13.92-9.15a6,6,0,1,0,0-3c-10.16.3-16.92,5.11-16.92,12.17,0,7.28,7.21,12.18,17.94,12.18H97.59c18.47,0,31.36,8.16,31.36,19.85,0,5-3.07,9.92-8.43,13.59-5.88,4-14,6.26-22.93,6.26H38.81a6,6,0,1,0,0,3H97.59c21.52,0,34.38-11.62,34.38-22.86C132,81.82,117.83,72.42,97.59,72.42ZM67.65,49.55a3,3,0,1,1-3,3A3,3,0,0,1,67.65,49.55ZM33,119.65a3,3,0,1,1,3-3A3,3,0,0,1,33,119.65Z"/><path class="cls-2" d="M60.93,86.11H95.7c8.92,0,14.92,3.68,14.92,9.17,0,5.25-5.49,8.84-13.78,9.15a6,6,0,1,0,0,3c10.09-.34,16.79-5.14,16.79-12.16,0-7.29-7.21-12.19-17.94-12.19H60.93c-18.46,0-31.36-8.16-31.36-19.84,0-9.76,11.73-19.85,31.36-19.85h58.42a6,6,0,1,0,0-3H60.93c-9.53,0-18.28,2.38-24.63,6.7s-9.74,10-9.74,16.16C26.56,76.71,40.69,86.11,60.93,86.11ZM91,109a3,3,0,1,1,3-3A3,3,0,0,1,91,109Zm34.18-70.1a3,3,0,1,1-3,3A3,3,0,0,1,125.19,38.87Z"/><path class="cls-3" d="M171.12,131.77l.75-1.15a6.12,6.12,0,0,0,1.6.76,6.63,6.63,0,0,0,1.88.23,3.2,3.2,0,0,0,2-.56,1.88,1.88,0,0,0,.77-1.64,1.93,1.93,0,0,0-.65-1.53,6.92,6.92,0,0,0-2.14-1.11,8.12,8.12,0,0,1-2.73-1.5,2.88,2.88,0,0,1-.89-2.21,3.26,3.26,0,0,1,1.15-2.6,4.5,4.5,0,0,1,3-1,8.14,8.14,0,0,1,1.71.18,8.84,8.84,0,0,1,1.74.61l-.58,1.23a7,7,0,0,0-1.45-.5,7.48,7.48,0,0,0-1.53-.16,2.9,2.9,0,0,0-1.87.56,1.85,1.85,0,0,0-.68,1.53,1.66,1.66,0,0,0,.63,1.36,7.46,7.46,0,0,0,2.1,1,7.61,7.61,0,0,1,2.83,1.58,3.27,3.27,0,0,1,.86,2.37,3.48,3.48,0,0,1-1.15,2.65,4.59,4.59,0,0,1-3.23,1.06,7.42,7.42,0,0,1-2.16-.29A7.13,7.13,0,0,1,171.12,131.77Z"/><path class="cls-3" d="M195.25,132.77h-1.49v-5.36a4,4,0,0,0-.48-2.25,1.83,1.83,0,0,0-1.61-.69,2,2,0,0,0-1.63.87,3.36,3.36,0,0,0-.67,2.1v5.33h-1.5v-5.55a3.36,3.36,0,0,0-.53-2.06,1.89,1.89,0,0,0-1.6-.69,2,2,0,0,0-1.62.82,3.39,3.39,0,0,0-.64,2.15v5.33H182v-9.34h1.5v1.48h0a3.5,3.5,0,0,1,1.22-1.28,3.3,3.3,0,0,1,1.68-.42,2.68,2.68,0,0,1,2.64,1.93,3.77,3.77,0,0,1,1.3-1.45,3.37,3.37,0,0,1,1.81-.48,2.77,2.77,0,0,1,2.31,1,4.41,4.41,0,0,1,.77,2.85Z"/><path class="cls-3" d="M204.7,132.77h-1.5v-1.46h0a3.37,3.37,0,0,1-1.19,1.26,3.19,3.19,0,0,1-1.65.42,3,3,0,0,1-2.13-.76,2.67,2.67,0,0,1-.81-2,2.6,2.6,0,0,1,.82-2,4.11,4.11,0,0,1,2.33-1l2.66-.36v-.21a2.21,2.21,0,0,0-.54-1.68,2.11,2.11,0,0,0-1.46-.49,3.76,3.76,0,0,0-1.41.27,4,4,0,0,0-1.27.84l-.87-.9a5.23,5.23,0,0,1,1.66-1.12,5.45,5.45,0,0,1,2-.35,3.42,3.42,0,0,1,2.55.87,3.58,3.58,0,0,1,.86,2.61ZM203.2,129v-.93l-2.25.31a3.38,3.38,0,0,0-1.55.52,1.34,1.34,0,0,0-.52,1.17,1.65,1.65,0,0,0,.49,1.29,1.72,1.72,0,0,0,1.19.44,2.47,2.47,0,0,0,1.93-.8A2.83,2.83,0,0,0,203.2,129Z"/><path class="cls-3" d="M212.2,124.7a2,2,0,0,0-.31-.07,1.58,1.58,0,0,0-.34,0,2.07,2.07,0,0,0-1.8,1,4.22,4.22,0,0,0-.66,2.43v4.76H207.6v-9.34h1.49v1.85h0a3,3,0,0,1,1-1.5,2.33,2.33,0,0,1,1.51-.52,3.23,3.23,0,0,1,.48,0l.35.08Z"/><path class="cls-3" d="M218.55,132.66a5,5,0,0,1-.75.24,4.32,4.32,0,0,1-.84.07,2.32,2.32,0,0,1-1.75-.65,2.67,2.67,0,0,1-.63-1.93V124.7H213v-1.27h1.61v-2.29l1.49-.48v2.77h2.36v1.27h-2.36v5.52a1.88,1.88,0,0,0,.29,1.16,1.07,1.07,0,0,0,.87.35,2.24,2.24,0,0,0,.52-.06,1.78,1.78,0,0,0,.43-.15Z"/><path class="cls-3" d="M235.54,131.88a8.22,8.22,0,0,1-2.09.83,9,9,0,0,1-2.3.28,6.09,6.09,0,0,1-4.56-1.73,6.67,6.67,0,0,1-1.7-4.86,6.78,6.78,0,0,1,1.9-5.06,6.6,6.6,0,0,1,4.86-1.87,8.54,8.54,0,0,1,2,.22,8.38,8.38,0,0,1,1.9.72l-.63,1.24a6.82,6.82,0,0,0-1.59-.61,7.63,7.63,0,0,0-1.7-.19,5,5,0,0,0-3.69,1.43,5.34,5.34,0,0,0-1.45,4,5.58,5.58,0,0,0,1.27,4,4.66,4.66,0,0,0,3.58,1.34,6.47,6.47,0,0,0,1.43-.15A4.46,4.46,0,0,0,234,131v-3.67h-2.86V126h4.4Z"/><path class="cls-3" d="M245.89,128.44h-6.61a3.54,3.54,0,0,0,.83,2.43,2.93,2.93,0,0,0,2.25.85,4.62,4.62,0,0,0,1.26-.18,4.93,4.93,0,0,0,1.25-.6l.7,1.07a5.7,5.7,0,0,1-3.33,1,4.32,4.32,0,0,1-3.31-1.26,4.92,4.92,0,0,1-1.19-3.51,5.28,5.28,0,0,1,1.19-3.63,3.93,3.93,0,0,1,3.11-1.38,3.5,3.5,0,0,1,2.84,1.19,5,5,0,0,1,1,3.3Zm-1.54-1.22a3,3,0,0,0-.63-2,2.12,2.12,0,0,0-1.7-.72,2.47,2.47,0,0,0-1.81.74,3.36,3.36,0,0,0-.91,2Z"/><path class="cls-3" d="M255.91,132.77h-1.5v-5.33a3.8,3.8,0,0,0-.54-2.23,1.89,1.89,0,0,0-1.63-.74,2.36,2.36,0,0,0-1.86.84,3.13,3.13,0,0,0-.73,2.13v5.33h-1.5v-9.34h1.5V125h0a3.67,3.67,0,0,1,1.29-1.33,3.42,3.42,0,0,1,1.77-.44,2.87,2.87,0,0,1,2.35,1,4.41,4.41,0,0,1,.81,2.86Z"/><path class="cls-3" d="M266.24,128.44h-6.61a3.6,3.6,0,0,0,.84,2.43,2.91,2.91,0,0,0,2.24.85,4.69,4.69,0,0,0,1.27-.18,4.93,4.93,0,0,0,1.25-.6l.69,1.07a6.46,6.46,0,0,1-1.58.75,6.39,6.39,0,0,1-1.75.23,4.31,4.31,0,0,1-3.3-1.26,5,5,0,0,1-1.2-3.51,5.33,5.33,0,0,1,1.19-3.63,3.94,3.94,0,0,1,3.12-1.38,3.48,3.48,0,0,1,2.83,1.19,4.9,4.9,0,0,1,1,3.3Zm-1.53-1.22a3.12,3.12,0,0,0-.63-2,2.13,2.13,0,0,0-1.71-.72,2.49,2.49,0,0,0-1.81.74,3.36,3.36,0,0,0-.91,2Z"/><path class="cls-3" d="M273.12,124.7a2.6,2.6,0,0,0-.31-.07,1.69,1.69,0,0,0-.35,0,2.07,2.07,0,0,0-1.8,1A4.22,4.22,0,0,0,270,128v4.76h-1.49v-9.34H270v1.85h0a3,3,0,0,1,1-1.5,2.35,2.35,0,0,1,1.51-.52,3.23,3.23,0,0,1,.48,0l.35.08Z"/><path class="cls-3" d="M281.62,132.77h-1.49v-1.46h0a3.37,3.37,0,0,1-1.19,1.26,3.16,3.16,0,0,1-1.65.42,3,3,0,0,1-2.13-.76,2.67,2.67,0,0,1-.81-2,2.64,2.64,0,0,1,.82-2,4.14,4.14,0,0,1,2.33-1l2.67-.36v-.21a2.22,2.22,0,0,0-.55-1.68,2.1,2.1,0,0,0-1.46-.49,3.76,3.76,0,0,0-1.41.27,4,4,0,0,0-1.27.84l-.87-.9a5.16,5.16,0,0,1,1.67-1.12,5.4,5.4,0,0,1,2-.35,3.47,3.47,0,0,1,2.56.87,3.58,3.58,0,0,1,.85,2.61ZM280.13,129v-.93l-2.26.31a3.43,3.43,0,0,0-1.55.52,1.34,1.34,0,0,0-.52,1.17,1.65,1.65,0,0,0,.49,1.29,1.72,1.72,0,0,0,1.19.44,2.47,2.47,0,0,0,1.93-.8A2.84,2.84,0,0,0,280.13,129Z"/><path class="cls-3" d="M289,132.66a3.61,3.61,0,0,1-1.59.31,2.29,2.29,0,0,1-1.74-.65,2.63,2.63,0,0,1-.64-1.93V124.7h-1.6v-1.27H285v-2.29l1.5-.48v2.77h2.35v1.27H286.5v5.52a1.82,1.82,0,0,0,.29,1.16,1.06,1.06,0,0,0,.86.35,2.33,2.33,0,0,0,.53-.06,2,2,0,0,0,.43-.15Z"/><path class="cls-3" d="M291.62,121.19a1.06,1.06,0,1,1,0-2.12,1,1,0,0,1,.77.31,1.06,1.06,0,0,1,0,1.5A1,1,0,0,1,291.62,121.19Zm.73,11.58h-1.5v-9.34h1.5Z"/><path class="cls-3" d="M299.29,133a4.31,4.31,0,0,1-3.31-1.31,4.82,4.82,0,0,1-1.24-3.47,5.08,5.08,0,0,1,1.28-3.67,4.63,4.63,0,0,1,3.49-1.33,4.14,4.14,0,0,1,3.26,1.28,5.15,5.15,0,0,1,1.17,3.57,5,5,0,0,1-1.26,3.59A4.42,4.42,0,0,1,299.29,133Zm.11-1.26a2.73,2.73,0,0,0,2.23-.94,5,5,0,0,0,0-5.38,2.71,2.71,0,0,0-2.22-.94,2.88,2.88,0,0,0-2.29,1,4,4,0,0,0-.84,2.7,3.82,3.82,0,0,0,.85,2.62A2.9,2.9,0,0,0,299.4,131.73Z"/><path class="cls-3" d="M314.09,132.77H312.6v-5.33a3.8,3.8,0,0,0-.55-2.23,1.89,1.89,0,0,0-1.63-.74,2.36,2.36,0,0,0-1.85.84,3.14,3.14,0,0,0-.74,2.13v5.33h-1.5v-9.34h1.5V125h0a3.67,3.67,0,0,1,1.29-1.33,3.48,3.48,0,0,1,1.78-.44,2.85,2.85,0,0,1,2.34,1,4.41,4.41,0,0,1,.81,2.86Z"/><path class="cls-3" d="M327.51,133a5.75,5.75,0,0,1-4.46-1.83,6.86,6.86,0,0,1-1.67-4.78,7.27,7.27,0,0,1,1.7-5,6,6,0,0,1,4.65-1.87,5.61,5.61,0,0,1,4.37,1.82,6.85,6.85,0,0,1,1.65,4.77,7.24,7.24,0,0,1-1.69,5.07A5.86,5.86,0,0,1,327.51,133Zm0-1.38a4.29,4.29,0,0,0,3.4-1.4,5.8,5.8,0,0,0,1.24-3.94,6,6,0,0,0-1.21-4,4.11,4.11,0,0,0-3.32-1.42,4.24,4.24,0,0,0-3.35,1.49,6.6,6.6,0,0,0,0,7.8A4.1,4.1,0,0,0,327.51,131.61Z"/><path class="cls-3" d="M340.59,120.16a2.42,2.42,0,0,0-.46-.12,3,3,0,0,0-.43,0,1.48,1.48,0,0,0-1.14.41,1.75,1.75,0,0,0-.38,1.21v1.81h2.19v1.27h-2.19v8.07h-1.49V124.7H335.1v-1.27h1.59v-1.88a2.62,2.62,0,0,1,.82-2.07,3.14,3.14,0,0,1,2.22-.75,3.93,3.93,0,0,1,.63,0,4.73,4.73,0,0,1,.59.16Z"/><path class="cls-3" d="M347.3,132.77V119.68h3.62a7.46,7.46,0,0,1,5.19,1.6,6.19,6.19,0,0,1,1.73,4.78,6.42,6.42,0,0,1-1.93,4.87,7.1,7.1,0,0,1-5.14,1.84Zm1.54-11.7v10.32h2a5.56,5.56,0,0,0,4-1.38,5.19,5.19,0,0,0,1.43-3.91,4.92,4.92,0,0,0-1.34-3.77,5.66,5.66,0,0,0-4-1.26Z"/><path class="cls-3" d="M361,121.19a1,1,0,0,1-.77-.31,1.06,1.06,0,0,1,0-1.5,1,1,0,0,1,.77-.31,1,1,0,0,1,.76.31,1.06,1.06,0,0,1,0,1.5A1,1,0,0,1,361,121.19Zm.73,11.58h-1.5v-9.34h1.5Z"/><path class="cls-3" d="M372.71,132.27a4.91,4.91,0,0,1-1.25,3.68,4.7,4.7,0,0,1-3.44,1.22,8.32,8.32,0,0,1-1.78-.18,8.2,8.2,0,0,1-1.7-.59l.54-1.15a7.35,7.35,0,0,0,1.43.49,7.16,7.16,0,0,0,1.49.16,3.23,3.23,0,0,0,2.36-.85,3.51,3.51,0,0,0,.86-2.58V131.2h0a3.59,3.59,0,0,1-1.33,1.35A3.9,3.9,0,0,1,368,133a3.52,3.52,0,0,1-2.81-1.24,5,5,0,0,1-1.06-3.35,5.8,5.8,0,0,1,1.17-3.75,3.81,3.81,0,0,1,3.11-1.44,3.35,3.35,0,0,1,1.65.38,3,3,0,0,1,1.15,1.13h0v-1.29h1.49Zm-1.49-3.72v-1.38a2.66,2.66,0,0,0-.76-1.91,2.46,2.46,0,0,0-1.87-.79,2.66,2.66,0,0,0-2.17,1,4.4,4.4,0,0,0-.79,2.88,3.9,3.9,0,0,0,.73,2.55,2.48,2.48,0,0,0,2,.88,2.63,2.63,0,0,0,2.05-.89A3.37,3.37,0,0,0,371.22,128.55Z"/><path class="cls-3" d="M376.51,121.19a1,1,0,0,1-.76-.31,1.06,1.06,0,0,1,0-1.5,1,1,0,0,1,.76-.31,1,1,0,0,1,.77.31,1.06,1.06,0,0,1,0,1.5A1,1,0,0,1,376.51,121.19Zm.73,11.58h-1.49v-9.34h1.49Z"/><path class="cls-3" d="M384.73,132.66a4.75,4.75,0,0,1-.76.24,4.15,4.15,0,0,1-.83.07,2.31,2.31,0,0,1-1.75-.65,2.67,2.67,0,0,1-.63-1.93V124.7h-1.61v-1.27h1.61v-2.29l1.49-.48v2.77h2.36v1.27h-2.36v5.52a1.88,1.88,0,0,0,.29,1.16,1.06,1.06,0,0,0,.86.35,2.26,2.26,0,0,0,.53-.06,1.78,1.78,0,0,0,.43-.15Z"/><path class="cls-3" d="M393.23,132.77h-1.5v-1.46h0a3.37,3.37,0,0,1-1.19,1.26,3.16,3.16,0,0,1-1.65.42,3,3,0,0,1-2.12-.76,2.87,2.87,0,0,1,0-4,4.14,4.14,0,0,1,2.33-1l2.67-.36v-.21a2.18,2.18,0,0,0-.55-1.68,2.08,2.08,0,0,0-1.46-.49,3.8,3.8,0,0,0-1.41.27,3.86,3.86,0,0,0-1.26.84l-.88-.9a5.16,5.16,0,0,1,1.67-1.12,5.4,5.4,0,0,1,2-.35,3.45,3.45,0,0,1,2.56.87,3.58,3.58,0,0,1,.86,2.61Zm-1.5-3.79v-.93l-2.26.31a3.47,3.47,0,0,0-1.55.52,1.34,1.34,0,0,0-.52,1.17,1.65,1.65,0,0,0,.49,1.29,1.73,1.73,0,0,0,1.19.44A2.47,2.47,0,0,0,391,131,2.84,2.84,0,0,0,391.73,129Z"/><path class="cls-3" d="M396.12,132.77V118.94h1.5v13.83Z"/><circle class="cls-4" cx="79.62" cy="79.62" r="75.62"/><path class="cls-5" d="M234.48,90.45a17.76,17.76,0,0,1-3.24,11.35c-5.71,7.66-16.87,7.7-23.85,7.73-3.55,0-17.73-.12-28.15-9.59q-10.55-9.6-10.54-25.83,0-16.41,11.69-26.89t30.09-10.48A65,65,0,0,1,228.57,39a4.75,4.75,0,0,1,3.61,4.43v.66c0,3.23-3.56,5.42-7,4.35a51.61,51.61,0,0,0-15.5-2.17q-12.42,0-20.33,7.5t-7.91,19.69q0,12.54,7.27,19.57t19.7,7c6.06,0,8.64-.14,10.44-1.4a9.39,9.39,0,0,0,2.72-3,7.63,7.63,0,0,0,1-3.75c.05-2.12.11-4.24.16-6.37a5.79,5.79,0,0,0-2-4.52,6.21,6.21,0,0,0-3.66-1.35l-6.72.1a4.67,4.67,0,0,1-4.79-4.74,4.93,4.93,0,0,1,5.17-4.64l10.79.08a9.2,9.2,0,0,1,1.89.21A14.46,14.46,0,0,1,230,74a13.54,13.54,0,0,1,4.43,8.48c0,.3.05.6.05.9Z"/><path class="cls-6" d="M246.2,73.36q0-16.7,10.42-27t28.12-10.29q16.58,0,26.62,10t10,25.64q0,16.59-10.25,26.87t-27.68,10.28q-16.64,0-27-9.92T246.2,73.36ZM259,72.59q0,11.63,6.64,19.16t17.95,7.52q11.87,0,18.46-7.16t6.59-19.34q0-12.47-6.37-19.73t-18.12-7.28q-11.46,0-18.31,7.55T259,72.59Z"/><path class="cls-7" d="M333.83,95.56l.38-45c0-6,1.53-12.06,9.73-14,1.92-.46,3.18-.57,3.78-.68a34,34,0,0,1,6.3-.56h6.29c27.73,1.16,38.31,13.57,38.31,36.46,0,11-5.89,22.94-11,27.34-8,6.83-11.74,10-32.37,9.93h-4.05c-5.53-.32-6.47-.57-9.37-1.91C337.17,105,333.83,101.5,333.83,95.56Zm11.55-41.13L345,90.61a6.42,6.42,0,0,0,1.39,3.73,9.86,9.86,0,0,0,7.86,3.7l3.21,0c11.54-.37,15.19-1.88,20.48-6.53s7.94-11.16,7.94-19.53q0-12.31-7.56-18.75c-5-4.29-9.47-6.15-21.9-6.43H354C346.91,46.82,345.38,51,345.38,54.43Z"/></g></g></svg>