<svg xmlns="http://www.w3.org/2000/svg" xmlns:xlink="http://www.w3.org/1999/xlink" viewBox="0 0 328.9 246.43"><defs><style>.cls-1{fill:#1c75bc;}.cls-2{stroke:#fff;stroke-miterlimit:10;stroke-width:3px;fill:url(#Xanh_nuoc_bien);}.cls-3{fill:url(#Xanh_nuoc_bien-2);}.cls-4{fill:url(#Xanh_nuoc_bien-3);}.cls-5{fill:#fff;}</style><linearGradient id="Xanh_nuoc_bien" x1="29.97" y1="345.73" x2="-38.06" y2="327.5" gradientTransform="translate(45.16 -246.71)" gradientUnits="userSpaceOnUse"><stop offset="0" stop-color="#001e6a"/><stop offset="1" stop-color="#55d6ff"/></linearGradient><linearGradient id="Xanh_nuoc_bien-2" x1="220.62" y1="290.83" x2="14.56" y2="235.62" gradientTransform="translate(61.43 -139.2)" xlink:href="#Xanh_nuoc_bien"/><linearGradient id="Xanh_nuoc_bien-3" x1="76.93" y1="356.47" x2="46.45" y2="348.31" gradientTransform="translate(14.75 -204.85)" xlink:href="#Xanh_nuoc_bien"/></defs><g id="Layer_2" data-name="Layer 2"><g id="Layer_1-2" data-name="Layer 1"><rect class="cls-1" x="118.5" y="34.41" width="175.99" height="175.99" rx="4.92" transform="translate(147.04 -110.16) rotate(45)"/><rect class="cls-2" x="11.12" y="59.92" width="59.99" height="59.99" rx="6.76" transform="translate(75.62 -2.74) rotate(45)"/><rect class="cls-3" x="91.02" y="36.03" width="175.99" height="175.99" rx="4.92" transform="translate(140.13 -90.26) rotate(45)"/><rect class="cls-4" x="63.04" y="134.15" width="26.8" height="26.8" rx="2.81" transform="translate(126.72 -10.84) rotate(45)"/><path class="cls-5" d="M198,109.09H153.41c-11.44,0-19.13-4.72-19.13-11.75,0-6.77,7.12-11.39,17.84-11.74a7.74,7.74,0,1,0,0-3.86c-13,.38-21.69,6.55-21.69,15.6,0,9.34,9.24,15.62,23,15.62H198c23.67,0,40.2,10.46,40.2,25.44,0,6.37-3.94,12.72-10.81,17.42-7.54,5.17-18,8-29.39,8H122.62a7.74,7.74,0,1,0,0,3.87H198c27.58,0,44.06-14.9,44.06-29.31C242,121.14,223.92,109.09,198,109.09ZM159.6,79.78a3.87,3.87,0,1,1-3.87,3.87A3.87,3.87,0,0,1,159.6,79.78Zm-44.46,89.86a3.87,3.87,0,1,1,3.87-3.87A3.87,3.87,0,0,1,115.14,169.64Z"/><path class="cls-5" d="M151,126.64h44.57c11.44,0,19.13,4.73,19.13,11.76,0,6.73-7,11.34-17.67,11.72a7.75,7.75,0,1,0,0,3.87c12.94-.43,21.53-6.59,21.53-15.59,0-9.34-9.25-15.62-23-15.62H151c-23.67,0-40.2-10.46-40.2-25.44,0-12.51,15-25.45,40.2-25.45h74.9a7.73,7.73,0,1,0,0-3.86H151c-12.22,0-23.43,3-31.57,8.59s-12.49,12.84-12.49,20.72C106.92,114.59,125,126.64,151,126.64ZM189.54,156a3.87,3.87,0,1,1,3.87-3.87A3.88,3.88,0,0,1,189.54,156Zm43.82-89.87A3.87,3.87,0,1,1,229.49,70,3.88,3.88,0,0,1,233.36,66.09Z"/></g></g></svg>